<svg width="65" height="65" viewBox="0 0 65 65" fill="none" xmlns="http://www.w3.org/2000/svg">
<g clip-path="url(#clip0_1434_337)">
<path d="M2.17001 26.8036C2.19022 26.4853 2.2458 26.1771 2.34181 25.884C2.76122 24.6712 3.79711 23.3827 4.55508 22.3468C7.31914 18.5671 10.9321 15.6211 14.7826 13.0036C23.9035 6.80338 33.5752 3.78161 44.6769 3.80688C48.0221 3.81698 51.3268 4.42841 54.6518 4.76192C56.1071 4.9034 57.5573 5.25207 58.952 5.68664C59.9778 6.00498 60.9176 6.42439 61.994 6.56083C62.7923 6.66189 63.5554 6.86402 64.0354 7.61188C65.5716 9.96158 63.2876 10.6286 62.1708 12.1142C61.2916 13.2865 60.7913 14.7014 60.3264 16.0708C59.8009 17.6221 59.2855 19.1532 58.8459 20.7348C58.4669 22.1042 57.4562 22.9431 56.7892 24.1255C55.7786 25.9092 55.7837 28.0922 54.869 29.9568C53.9191 31.8719 52.9943 33.7921 51.9382 35.6567C49.8109 39.396 47.3197 42.9787 44.207 45.9702C42.7971 47.3244 41.5136 48.8201 40.0937 50.1592C39.5884 50.6241 39.169 51.1648 38.6788 51.6448C38.0219 52.2815 37.2084 52.7211 36.5717 53.3932C35.46 54.5554 34.606 55.4043 32.9941 55.5054C31.2255 55.6216 29.5933 55.849 27.8096 55.6115C23.7266 55.0708 19.7903 52.0036 16.7382 49.472C14.9746 48.0066 13.11 46.4451 11.5688 44.7625C10.4066 43.4941 8.98162 42.2864 8.10237 40.7958C7.41515 39.6436 6.58138 38.5623 5.99017 37.3697C5.50001 36.3793 5.00481 35.3889 4.51971 34.3884C3.83248 32.9634 3.07451 31.6142 2.70564 30.073C2.46309 29.0927 2.10431 27.9052 2.17001 26.8036Z" fill="#D7598B"/>
<path d="M38.2493 49.9069C37.8097 50.8569 37.2185 51.63 36.698 52.3122C36.4554 52.6306 36.223 52.9337 36.0512 53.2016C34.99 54.8388 33.2568 55.9909 30.7555 56.7185C29.7954 57.0015 28.9162 57.0217 28.1026 57.0217H27.8752C27.6024 57.0217 27.3396 57.0268 27.1375 57.047C25.9702 57.1733 24.8636 57.1834 23.7923 57.1834L23.383 57.1885H23.2819C20.3916 57.1885 17.1323 56.3699 13.6002 54.7529C9.94675 53.0702 7.20795 50.9984 5.23723 48.4163C3.883 46.6426 3.06944 45.0256 2.68541 43.3176C2.55403 42.7214 2.25084 42.0998 1.90217 41.3924C1.62425 40.8214 1.3059 40.1746 1.03809 39.447C0.300332 37.451 0.34581 35.4853 0.381182 33.747L0.396341 33.0901C0.436766 30.4878 1.3059 27.7742 2.72078 25.8187C3.79709 24.328 5.2625 23.1304 7.19785 22.14C8.60767 21.4275 10.0781 20.9272 11.3313 20.5281C12.7058 20.0935 14.0903 19.8762 15.5759 19.8762C18.2036 19.8762 20.6139 20.5533 22.9484 21.2102C30.7151 23.3881 36.6879 29.6489 38.1583 37.1478C38.2594 37.6581 38.3554 38.1786 38.4514 38.6991C38.6434 39.7249 38.8203 40.6951 39.0477 41.64C39.2953 42.6456 39.4065 43.641 39.4014 44.7578C39.3964 46.5213 39.0022 48.3051 38.2493 49.9069Z" fill="#FCC21B"/>
<path d="M27.8853 17.2584C27.0212 17.1977 25.7226 17.1623 25.1566 16.46C23.8731 14.8733 27.8954 14.6206 28.6584 14.5145C29.6842 14.368 29.9672 13.7717 30.518 12.9228C31.0132 12.1597 31.9278 11.7302 32.8121 12.2659C33.8328 12.8874 33.5802 14.1052 33.0243 14.848C32.5999 15.4089 32.0188 16.2022 31.4326 16.5964C30.5584 17.1826 29.0172 17.3392 27.9914 17.2634C27.951 17.2584 27.9207 17.2584 27.8853 17.2584ZM41.2407 29.1837C41.2508 29.0523 41.2609 28.9462 41.266 28.8603C41.3418 28.0114 41.7107 26.8947 42.3373 26.2681C43.075 25.5303 46.2332 24.5349 46.6981 25.8891C47.2944 27.6223 44.6566 28.3196 44.0654 29.588C43.7218 30.3308 43.55 32.1449 42.5596 32.352C41.0841 32.6603 41.1548 30.2853 41.2407 29.1837ZM46.2736 13.3018C46.9508 14.1052 46.3444 15.7475 45.7228 16.4751C45.0659 17.2482 43.9947 17.7839 43.0144 18.0012C41.9431 18.2387 39.8713 17.0967 40.311 15.7626C40.7 14.6004 42.4636 14.8329 43.3731 14.469C44.3181 14.1002 45.1771 11.998 46.2736 13.3018ZM56.7538 11.2552C56.9812 10.9571 57.057 10.6236 56.678 10.3053C56.3041 9.99701 55.1116 10.4467 54.7073 10.5832C53.1358 11.1036 52.5092 12.8318 52.3172 14.3478C52.1201 15.9041 54.0251 16.4397 54.7073 15.0299C55.1318 14.1456 55.1267 12.948 55.8291 12.1446C56.006 11.9324 56.486 11.614 56.7538 11.2552Z" fill="#855C52"/>
</g>
<defs>
<clipPath id="clip0_1434_337">
<rect width="64.68" height="64.68" fill="white" transform="matrix(1 0 0 -1 0.118591 64.7983)"/>
</clipPath>
</defs>
</svg>
